<svg width="24" height="24" viewBox="0 0 24 24" fill="none" xmlns="http://www.w3.org/2000/svg">
<path d="M10 18.933H14C14.1326 18.933 14.2598 18.8803 14.3536 18.7865C14.4473 18.6928 14.5 18.5656 14.5 18.433C14.5 18.3004 14.4473 18.1732 14.3536 18.0794C14.2598 17.9857 14.1326 17.933 14 17.933H10C9.86739 17.933 9.74021 17.9857 9.64645 18.0794C9.55268 18.1732 9.5 18.3004 9.5 18.433C9.5 18.5656 9.55268 18.6928 9.64645 18.7865C9.74021 18.8803 9.86739 18.933 10 18.933Z" fill="black"/>
<path d="M16.7268 21.937H7.2728C6.64541 21.8996 6.05818 21.6159 5.63887 21.1477C5.21956 20.6795 5.0021 20.0647 5.0338 19.437V4.56299C5.0021 3.93528 5.21956 3.32045 5.63887 2.85227C6.05818 2.38408 6.64541 2.10042 7.2728 2.06299H16.7268C17.3542 2.10042 17.9414 2.38408 18.3607 2.85227C18.78 3.32045 18.9975 3.93528 18.9658 4.56299V19.437C18.9975 20.0647 18.78 20.6795 18.3607 21.1477C17.9414 21.6159 17.3542 21.8996 16.7268 21.937ZM7.2728 3.06299C6.91109 3.10119 6.57876 3.27966 6.34712 3.56009C6.11549 3.84052 6.003 4.20057 6.0338 4.56299V19.437C6.003 19.7994 6.11549 20.1595 6.34712 20.4399C6.57876 20.7203 6.91109 20.8988 7.2728 20.937H16.7268C17.0885 20.8988 17.4208 20.7203 17.6525 20.4399C17.8841 20.1595 17.9966 19.7994 17.9658 19.437V4.56299C17.9966 4.20057 17.8841 3.84052 17.6525 3.56009C17.4208 3.27966 17.0885 3.10119 16.7268 3.06299H7.2728Z" fill="black"/>
</svg>
